<mxfile host="app.diagrams.net" agent="Mozilla/5.0 (Windows NT 10.0; Win64; x64) AppleWebKit/537.36 (KHTML, like Gecko) Chrome/128.0.0.0 Safari/537.36" version="24.7.8">
  <diagram name="第 1 页" id="oo8JPl3kkmHTI87r6Oml">
    <mxGraphModel dx="2193" dy="975" grid="0" gridSize="10" guides="1" tooltips="1" connect="1" arrows="1" fold="1" page="0" pageScale="1" pageWidth="827" pageHeight="1169" math="0" shadow="0">
      <root>
        <mxCell id="0" />
        <mxCell id="1" parent="0" />
        <mxCell id="z4fli7amqPs9KNLF0RMa-16" value="" style="edgeStyle=orthogonalEdgeStyle;rounded=0;orthogonalLoop=1;jettySize=auto;html=1;" edge="1" parent="1" source="z4fli7amqPs9KNLF0RMa-11" target="z4fli7amqPs9KNLF0RMa-15">
          <mxGeometry relative="1" as="geometry" />
        </mxCell>
        <mxCell id="z4fli7amqPs9KNLF0RMa-47" value="&lt;b&gt;&lt;font style=&quot;font-size: 16px;&quot;&gt;个账&lt;/font&gt;&lt;/b&gt;" style="edgeLabel;html=1;align=center;verticalAlign=middle;resizable=0;points=[];" vertex="1" connectable="0" parent="z4fli7amqPs9KNLF0RMa-16">
          <mxGeometry y="1" relative="1" as="geometry">
            <mxPoint as="offset" />
          </mxGeometry>
        </mxCell>
        <mxCell id="z4fli7amqPs9KNLF0RMa-25" value="" style="edgeStyle=orthogonalEdgeStyle;rounded=0;orthogonalLoop=1;jettySize=auto;html=1;" edge="1" parent="1" source="z4fli7amqPs9KNLF0RMa-11">
          <mxGeometry relative="1" as="geometry">
            <mxPoint x="628" y="85" as="targetPoint" />
          </mxGeometry>
        </mxCell>
        <mxCell id="z4fli7amqPs9KNLF0RMa-26" value="&lt;b&gt;&lt;font style=&quot;font-size: 16px;&quot;&gt;结算&lt;/font&gt;&lt;/b&gt;" style="edgeLabel;html=1;align=center;verticalAlign=middle;resizable=0;points=[];" vertex="1" connectable="0" parent="z4fli7amqPs9KNLF0RMa-25">
          <mxGeometry x="-0.2" y="-1" relative="1" as="geometry">
            <mxPoint as="offset" />
          </mxGeometry>
        </mxCell>
        <mxCell id="z4fli7amqPs9KNLF0RMa-11" value="&lt;b&gt;&lt;font style=&quot;font-size: 16px;&quot;&gt;His&lt;/font&gt;&lt;/b&gt;" style="rounded=0;whiteSpace=wrap;html=1;fillColor=#fff2cc;strokeColor=#d6b656;" vertex="1" parent="1">
          <mxGeometry x="568" y="155" width="120" height="60" as="geometry" />
        </mxCell>
        <mxCell id="z4fli7amqPs9KNLF0RMa-13" style="edgeStyle=orthogonalEdgeStyle;rounded=0;orthogonalLoop=1;jettySize=auto;html=1;" edge="1" parent="1" source="z4fli7amqPs9KNLF0RMa-12">
          <mxGeometry relative="1" as="geometry">
            <mxPoint x="567" y="182" as="targetPoint" />
          </mxGeometry>
        </mxCell>
        <mxCell id="z4fli7amqPs9KNLF0RMa-12" value="&lt;b&gt;&lt;font style=&quot;font-size: 16px;&quot;&gt;患者&lt;/font&gt;&lt;/b&gt;" style="shape=umlActor;verticalLabelPosition=bottom;verticalAlign=top;html=1;outlineConnect=0;" vertex="1" parent="1">
          <mxGeometry x="446" y="152" width="30" height="60" as="geometry" />
        </mxCell>
        <mxCell id="z4fli7amqPs9KNLF0RMa-15" value="&lt;b&gt;&lt;font style=&quot;font-size: 16px;&quot;&gt;银联&lt;/font&gt;&lt;/b&gt;" style="ellipse;whiteSpace=wrap;html=1;rounded=0;fillColor=#dae8fc;strokeColor=#6c8ebf;" vertex="1" parent="1">
          <mxGeometry x="788" y="145" width="80" height="80" as="geometry" />
        </mxCell>
        <mxCell id="z4fli7amqPs9KNLF0RMa-19" value="" style="edgeStyle=orthogonalEdgeStyle;rounded=0;orthogonalLoop=1;jettySize=auto;html=1;" edge="1" parent="1" source="z4fli7amqPs9KNLF0RMa-20" target="z4fli7amqPs9KNLF0RMa-23">
          <mxGeometry relative="1" as="geometry" />
        </mxCell>
        <mxCell id="z4fli7amqPs9KNLF0RMa-20" value="&lt;b&gt;&lt;font style=&quot;font-size: 16px;&quot;&gt;His&lt;/font&gt;&lt;/b&gt;" style="rounded=0;whiteSpace=wrap;html=1;fillColor=#fff2cc;strokeColor=#d6b656;" vertex="1" parent="1">
          <mxGeometry x="568" y="326" width="120" height="60" as="geometry" />
        </mxCell>
        <mxCell id="z4fli7amqPs9KNLF0RMa-21" style="edgeStyle=orthogonalEdgeStyle;rounded=0;orthogonalLoop=1;jettySize=auto;html=1;" edge="1" parent="1" source="z4fli7amqPs9KNLF0RMa-22">
          <mxGeometry relative="1" as="geometry">
            <mxPoint x="567" y="353" as="targetPoint" />
          </mxGeometry>
        </mxCell>
        <mxCell id="z4fli7amqPs9KNLF0RMa-22" value="&lt;b&gt;&lt;font style=&quot;font-size: 16px;&quot;&gt;患者&lt;/font&gt;&lt;/b&gt;" style="shape=umlActor;verticalLabelPosition=bottom;verticalAlign=top;html=1;outlineConnect=0;" vertex="1" parent="1">
          <mxGeometry x="446" y="323" width="30" height="60" as="geometry" />
        </mxCell>
        <mxCell id="z4fli7amqPs9KNLF0RMa-28" value="" style="edgeStyle=orthogonalEdgeStyle;rounded=0;orthogonalLoop=1;jettySize=auto;html=1;" edge="1" parent="1" source="z4fli7amqPs9KNLF0RMa-23" target="z4fli7amqPs9KNLF0RMa-27">
          <mxGeometry relative="1" as="geometry" />
        </mxCell>
        <mxCell id="z4fli7amqPs9KNLF0RMa-23" value="&lt;span style=&quot;font-size: 16px;&quot;&gt;&lt;b&gt;地纬&lt;/b&gt;&lt;/span&gt;" style="ellipse;whiteSpace=wrap;html=1;rounded=0;fillColor=#f8cecc;strokeColor=#b85450;" vertex="1" parent="1">
          <mxGeometry x="788" y="316" width="80" height="80" as="geometry" />
        </mxCell>
        <mxCell id="z4fli7amqPs9KNLF0RMa-24" value="&lt;b&gt;&lt;font style=&quot;font-size: 16px;&quot;&gt;地纬&lt;/font&gt;&lt;/b&gt;" style="ellipse;whiteSpace=wrap;html=1;fillColor=#f8cecc;strokeColor=#b85450;rounded=0;" vertex="1" parent="1">
          <mxGeometry x="588" y="4" width="80" height="80" as="geometry" />
        </mxCell>
        <mxCell id="z4fli7amqPs9KNLF0RMa-27" value="&lt;b&gt;&lt;font style=&quot;font-size: 16px;&quot;&gt;工行&lt;/font&gt;&lt;/b&gt;" style="ellipse;whiteSpace=wrap;html=1;fillColor=#dae8fc;strokeColor=#6c8ebf;rounded=0;" vertex="1" parent="1">
          <mxGeometry x="948" y="316" width="80" height="80" as="geometry" />
        </mxCell>
        <mxCell id="z4fli7amqPs9KNLF0RMa-30" value="" style="edgeStyle=orthogonalEdgeStyle;rounded=0;orthogonalLoop=1;jettySize=auto;html=1;" edge="1" parent="1" source="z4fli7amqPs9KNLF0RMa-31" target="z4fli7amqPs9KNLF0RMa-35">
          <mxGeometry relative="1" as="geometry" />
        </mxCell>
        <mxCell id="z4fli7amqPs9KNLF0RMa-31" value="&lt;b&gt;&lt;font style=&quot;font-size: 16px;&quot;&gt;His&lt;/font&gt;&lt;/b&gt;" style="rounded=0;whiteSpace=wrap;html=1;fillColor=#fff2cc;strokeColor=#d6b656;" vertex="1" parent="1">
          <mxGeometry x="568" y="507" width="120" height="60" as="geometry" />
        </mxCell>
        <mxCell id="z4fli7amqPs9KNLF0RMa-32" style="edgeStyle=orthogonalEdgeStyle;rounded=0;orthogonalLoop=1;jettySize=auto;html=1;" edge="1" parent="1" source="z4fli7amqPs9KNLF0RMa-33">
          <mxGeometry relative="1" as="geometry">
            <mxPoint x="567" y="534" as="targetPoint" />
          </mxGeometry>
        </mxCell>
        <mxCell id="z4fli7amqPs9KNLF0RMa-33" value="&lt;b&gt;&lt;font style=&quot;font-size: 16px;&quot;&gt;患者&lt;/font&gt;&lt;/b&gt;" style="shape=umlActor;verticalLabelPosition=bottom;verticalAlign=top;html=1;outlineConnect=0;" vertex="1" parent="1">
          <mxGeometry x="446" y="504" width="30" height="60" as="geometry" />
        </mxCell>
        <mxCell id="z4fli7amqPs9KNLF0RMa-53" value="" style="edgeStyle=orthogonalEdgeStyle;rounded=0;orthogonalLoop=1;jettySize=auto;html=1;" edge="1" parent="1" source="z4fli7amqPs9KNLF0RMa-35" target="z4fli7amqPs9KNLF0RMa-52">
          <mxGeometry relative="1" as="geometry" />
        </mxCell>
        <mxCell id="z4fli7amqPs9KNLF0RMa-35" value="&lt;span style=&quot;font-size: 16px;&quot;&gt;&lt;b&gt;地纬&lt;/b&gt;&lt;/span&gt;" style="ellipse;whiteSpace=wrap;html=1;rounded=0;fillColor=#f8cecc;strokeColor=#b85450;" vertex="1" parent="1">
          <mxGeometry x="788" y="497" width="80" height="80" as="geometry" />
        </mxCell>
        <mxCell id="z4fli7amqPs9KNLF0RMa-43" style="edgeStyle=orthogonalEdgeStyle;rounded=0;orthogonalLoop=1;jettySize=auto;html=1;exitX=1;exitY=0.5;exitDx=0;exitDy=0;entryX=0;entryY=0.5;entryDx=0;entryDy=0;" edge="1" parent="1" source="z4fli7amqPs9KNLF0RMa-38" target="z4fli7amqPs9KNLF0RMa-42">
          <mxGeometry relative="1" as="geometry" />
        </mxCell>
        <mxCell id="z4fli7amqPs9KNLF0RMa-44" style="edgeStyle=orthogonalEdgeStyle;rounded=0;orthogonalLoop=1;jettySize=auto;html=1;exitX=1;exitY=0.5;exitDx=0;exitDy=0;entryX=0;entryY=0.5;entryDx=0;entryDy=0;" edge="1" parent="1" source="z4fli7amqPs9KNLF0RMa-38" target="z4fli7amqPs9KNLF0RMa-41">
          <mxGeometry relative="1" as="geometry" />
        </mxCell>
        <mxCell id="z4fli7amqPs9KNLF0RMa-38" value="&lt;b&gt;&lt;font style=&quot;font-size: 16px;&quot;&gt;门诊结算&lt;/font&gt;&lt;/b&gt;" style="rounded=0;whiteSpace=wrap;html=1;" vertex="1" parent="1">
          <mxGeometry x="-124" y="363" width="120" height="60" as="geometry" />
        </mxCell>
        <mxCell id="z4fli7amqPs9KNLF0RMa-39" value="&lt;b&gt;&lt;font style=&quot;font-size: 16px;&quot;&gt;实体卡&lt;/font&gt;&lt;/b&gt;" style="rounded=0;whiteSpace=wrap;html=1;" vertex="1" parent="1">
          <mxGeometry x="219" y="145" width="120" height="60" as="geometry" />
        </mxCell>
        <mxCell id="z4fli7amqPs9KNLF0RMa-40" value="&lt;b&gt;&lt;font style=&quot;font-size: 16px;&quot;&gt;电子凭证&lt;/font&gt;&lt;/b&gt;" style="rounded=0;whiteSpace=wrap;html=1;" vertex="1" parent="1">
          <mxGeometry x="219" y="326" width="120" height="60" as="geometry" />
        </mxCell>
        <mxCell id="z4fli7amqPs9KNLF0RMa-41" value="&lt;b style=&quot;font-size: 16px;&quot;&gt;统筹&lt;/b&gt;" style="rounded=0;whiteSpace=wrap;html=1;" vertex="1" parent="1">
          <mxGeometry x="44" y="504" width="120" height="60" as="geometry" />
        </mxCell>
        <mxCell id="z4fli7amqPs9KNLF0RMa-45" style="edgeStyle=orthogonalEdgeStyle;rounded=0;orthogonalLoop=1;jettySize=auto;html=1;exitX=1;exitY=0.5;exitDx=0;exitDy=0;entryX=0;entryY=0.5;entryDx=0;entryDy=0;" edge="1" parent="1" source="z4fli7amqPs9KNLF0RMa-42" target="z4fli7amqPs9KNLF0RMa-39">
          <mxGeometry relative="1" as="geometry" />
        </mxCell>
        <mxCell id="z4fli7amqPs9KNLF0RMa-42" value="&lt;b&gt;&lt;font style=&quot;font-size: 16px;&quot;&gt;个账&lt;/font&gt;&lt;/b&gt;" style="rounded=0;whiteSpace=wrap;html=1;" vertex="1" parent="1">
          <mxGeometry x="44" y="232" width="120" height="60" as="geometry" />
        </mxCell>
        <mxCell id="z4fli7amqPs9KNLF0RMa-46" style="edgeStyle=orthogonalEdgeStyle;rounded=0;orthogonalLoop=1;jettySize=auto;html=1;exitX=1;exitY=0.5;exitDx=0;exitDy=0;entryX=0;entryY=0.65;entryDx=0;entryDy=0;entryPerimeter=0;" edge="1" parent="1" source="z4fli7amqPs9KNLF0RMa-42" target="z4fli7amqPs9KNLF0RMa-40">
          <mxGeometry relative="1" as="geometry" />
        </mxCell>
        <mxCell id="z4fli7amqPs9KNLF0RMa-54" style="edgeStyle=orthogonalEdgeStyle;rounded=0;orthogonalLoop=1;jettySize=auto;html=1;exitX=0.5;exitY=1;exitDx=0;exitDy=0;entryX=0.5;entryY=0;entryDx=0;entryDy=0;" edge="1" parent="1" source="z4fli7amqPs9KNLF0RMa-52">
          <mxGeometry relative="1" as="geometry">
            <mxPoint x="828" y="855" as="targetPoint" />
          </mxGeometry>
        </mxCell>
        <mxCell id="z4fli7amqPs9KNLF0RMa-55" value="&lt;b&gt;&lt;font style=&quot;font-size: 16px;&quot;&gt;是&lt;/font&gt;&lt;/b&gt;" style="edgeLabel;html=1;align=center;verticalAlign=middle;resizable=0;points=[];" vertex="1" connectable="0" parent="z4fli7amqPs9KNLF0RMa-54">
          <mxGeometry x="-0.0678" y="1" relative="1" as="geometry">
            <mxPoint as="offset" />
          </mxGeometry>
        </mxCell>
        <mxCell id="z4fli7amqPs9KNLF0RMa-57" value="" style="edgeStyle=orthogonalEdgeStyle;rounded=0;orthogonalLoop=1;jettySize=auto;html=1;" edge="1" parent="1" source="z4fli7amqPs9KNLF0RMa-52" target="z4fli7amqPs9KNLF0RMa-56">
          <mxGeometry relative="1" as="geometry" />
        </mxCell>
        <mxCell id="z4fli7amqPs9KNLF0RMa-58" value="&lt;b&gt;&lt;font style=&quot;font-size: 16px;&quot;&gt;否&lt;/font&gt;&lt;/b&gt;" style="edgeLabel;html=1;align=center;verticalAlign=middle;resizable=0;points=[];" vertex="1" connectable="0" parent="z4fli7amqPs9KNLF0RMa-57">
          <mxGeometry x="-0.0877" relative="1" as="geometry">
            <mxPoint as="offset" />
          </mxGeometry>
        </mxCell>
        <mxCell id="z4fli7amqPs9KNLF0RMa-52" value="&lt;font style=&quot;font-size: 16px;&quot;&gt;&lt;b&gt;市内&lt;/b&gt;&lt;/font&gt;" style="rhombus;whiteSpace=wrap;html=1;fillColor=#f5f5f5;strokeColor=#666666;rounded=0;fontColor=#333333;" vertex="1" parent="1">
          <mxGeometry x="788" y="657" width="80" height="80" as="geometry" />
        </mxCell>
        <mxCell id="z4fli7amqPs9KNLF0RMa-56" value="&lt;b&gt;&lt;font style=&quot;font-size: 16px;&quot;&gt;各地级市医保机构&lt;/font&gt;&lt;/b&gt;" style="whiteSpace=wrap;html=1;fillColor=#dae8fc;strokeColor=#6c8ebf;rounded=0;" vertex="1" parent="1">
          <mxGeometry x="1010.5" y="667" width="147.5" height="60" as="geometry" />
        </mxCell>
        <mxCell id="z4fli7amqPs9KNLF0RMa-62" value="&lt;b&gt;&lt;font style=&quot;font-size: 16px;&quot;&gt;聊城市职工医疗保险事业处、聊城市居民医疗保险事业处等37个医保机构&lt;/font&gt;&lt;/b&gt;" style="rounded=0;whiteSpace=wrap;html=1;fillColor=#dae8fc;strokeColor=#6c8ebf;" vertex="1" parent="1">
          <mxGeometry x="712.5" y="853" width="231" height="60" as="geometry" />
        </mxCell>
      </root>
    </mxGraphModel>
  </diagram>
</mxfile>
